<?xml version="1.0" standalone="no"?>
<!DOCTYPE svg PUBLIC "-//W3C//DTD SVG 1.1//EN" "http://www.w3.org/Graphics/SVG/1.1/DTD/svg11.dtd">
<svg width="100%" height="100%" viewBox="0 0 3094 816" version="1.1" xmlns="http://www.w3.org/2000/svg" xmlns:xlink="http://www.w3.org/1999/xlink" xml:space="preserve" style="fill-rule:evenodd;clip-rule:evenodd;stroke-linejoin:round;stroke-miterlimit:1.41421;">
    <g transform="matrix(1,0,0,1,-236.22,-82.5716)">
        <g>
            <rect x="236.22" y="236.22" width="188.976" height="188.976" style="fill:rgb(149,149,130);"/>
            <g transform="matrix(1,0,0,1,0,236.22)">
                <rect x="236.22" y="236.22" width="188.976" height="188.976" style="fill:rgb(149,149,130);"/>
            </g>
            <g transform="matrix(1,0,0,1,0,472.441)">
                <rect x="236.22" y="236.22" width="188.976" height="188.976" style="fill:rgb(236,121,35);"/>
            </g>
            <g transform="matrix(1,0,0,1,236.22,1.13687e-13)">
                <rect x="236.22" y="236.22" width="188.976" height="188.976" style="fill:rgb(149,149,130);"/>
            </g>
            <g transform="matrix(1,0,0,1,236.22,236.22)">
                <rect x="236.22" y="236.22" width="188.976" height="188.976" style="fill:rgb(236,121,35);"/>
            </g>
            <g transform="matrix(1,0,0,1,236.22,472.441)">
                <rect x="236.22" y="236.22" width="188.976" height="188.976" style="fill:rgb(130,9,27);"/>
            </g>
            <g transform="matrix(1,0,0,1,472.441,0)">
                <rect x="236.22" y="236.22" width="188.976" height="188.976" style="fill:rgb(236,121,35);"/>
            </g>
            <g transform="matrix(1,0,0,1,472.441,236.22)">
                <rect x="236.22" y="236.22" width="188.976" height="188.976" style="fill:rgb(130,9,27);"/>
            </g>
            <g transform="matrix(1,0,0,1,472.441,472.441)">
                <rect x="236.22" y="236.22" width="188.976" height="188.976" style="fill:rgb(130,9,27);"/>
            </g>
            <g transform="matrix(2.33716,0,0,2.33716,-2608.92,-285.946)">
                <path d="M1642.24,489.419L1791.63,489.419L1791.24,506.419L1621.63,506.419L1621.63,223.419L1791.24,223.419L1791.24,240.419L1642.24,240.419L1642.24,489.419Z" style="fill:rgb(102,102,102);"/>
            </g>
            <g transform="matrix(1.96343,0,0,2.33716,-1952.32,-285.963)">
                <rect x="1642.24" y="354.819" width="124" height="16.6" style="fill:rgb(102,102,102);"/>
            </g>
            <g transform="matrix(2.33716,0,0,2.33716,-2591.92,-285.946)">
                <path d="M2133.24,223.419L2133.24,506.419L2115.43,506.419L2115.43,265.219C2115.43,261.752 2115.64,258.086 2116.03,254.219L2004.63,452.019C2002.77,455.486 2000.1,457.219 1996.63,457.219L1993.43,457.219C1989.97,457.219 1987.3,455.486 1985.43,452.019L1871.04,253.819C1871.43,257.819 1871.63,261.619 1871.63,265.219L1871.63,506.419L1853.63,506.419L1853.63,223.419L1867.84,223.419C1869.7,223.419 1871.17,223.619 1872.24,224.019C1873.3,224.419 1874.37,225.486 1875.43,227.219L1989.63,424.019C1991.63,427.752 1993.37,431.752 1994.84,436.019C1995.63,433.886 1996.5,431.786 1997.43,429.719C1998.37,427.652 1999.37,425.686 2000.43,423.819L2111.43,227.219C2112.5,225.486 2113.6,224.419 2114.74,224.019C2115.87,223.619 2117.37,223.419 2119.24,223.419L2133.24,223.419Z" style="fill:rgb(102,102,102);fill-rule:nonzero;"/>
            </g>
            <g transform="matrix(2.33716,0,0,2.33716,-2608.92,-285.946)">
                <path d="M2308.43,490.019C2333.24,490.019 2352,484.652 2364.74,473.919C2377.47,463.186 2383.84,448.086 2383.84,428.619C2383.84,419.686 2382.14,411.652 2378.74,404.519C2375.34,397.386 2370.43,391.319 2364.03,386.319C2357.64,381.319 2349.77,377.486 2340.43,374.819C2331.1,372.152 2320.5,370.819 2308.64,370.819L2237.43,370.819L2237.43,490.019L2308.43,490.019ZM2237.43,239.619L2237.43,355.819L2298.64,355.819C2311.7,355.819 2322.87,354.152 2332.14,350.819C2341.4,347.486 2349,343.086 2354.93,337.619C2360.87,332.152 2365.24,325.952 2368.03,319.019C2370.84,312.086 2372.24,304.952 2372.24,297.619C2372.24,278.552 2366.2,264.119 2354.14,254.319C2342.07,244.519 2323.43,239.619 2298.24,239.619L2237.43,239.619ZM2298.24,223.419C2314.37,223.419 2328.37,225.019 2340.24,228.219C2352.1,231.419 2361.9,236.119 2369.64,242.319C2377.37,248.519 2383.1,256.086 2386.84,265.019C2390.57,273.952 2392.43,284.086 2392.43,295.419C2392.43,302.886 2391.14,310.086 2388.53,317.019C2385.93,323.952 2382.2,330.352 2377.34,336.219C2372.47,342.086 2366.47,347.186 2359.34,351.519C2352.2,355.852 2344.03,359.152 2334.84,361.419C2357.1,364.619 2374.2,371.986 2386.14,383.519C2398.07,395.052 2404.03,410.219 2404.03,429.019C2404.03,441.019 2401.9,451.819 2397.64,461.419C2393.37,471.019 2387.17,479.152 2379.03,485.819C2370.9,492.486 2360.9,497.586 2349.03,501.119C2337.17,504.652 2323.7,506.419 2308.64,506.419L2216.84,506.419L2216.84,223.419L2298.24,223.419Z" style="fill:rgb(102,102,102);fill-rule:nonzero;"/>
            </g>
            <g transform="matrix(1.16848,-5.04092e-32,3.17291e-32,1.16848,1936.18,-1453.78)">
                <path d="M1180,1570.83C1183.87,1570.83 1186.93,1571.96 1189.2,1574.23C1191.47,1576.5 1192.6,1579.43 1192.6,1583.03L1192.6,1604.63L1001.4,1604.63L1001.4,1592.43C1001.4,1589.9 1001.94,1587.3 1003,1584.63C1004.07,1581.96 1005.74,1579.5 1008,1577.23L1099.8,1485.03C1107.4,1477.3 1114.34,1469.86 1120.6,1462.73C1126.87,1455.6 1132.2,1448.43 1136.6,1441.23C1141,1434.03 1144.4,1426.73 1146.8,1419.33C1149.2,1411.93 1150.4,1404.03 1150.4,1395.63C1150.4,1387.23 1149.07,1379.86 1146.4,1373.53C1143.74,1367.2 1140.1,1361.96 1135.5,1357.83C1130.9,1353.7 1125.47,1350.6 1119.2,1348.53C1112.93,1346.46 1106.2,1345.43 1099,1345.43C1091.67,1345.43 1084.93,1346.5 1078.8,1348.63C1072.67,1350.76 1067.24,1353.73 1062.5,1357.53C1057.77,1361.33 1053.8,1365.83 1050.6,1371.03C1047.4,1376.23 1045.13,1381.96 1043.8,1388.23C1042.2,1392.9 1040.04,1396 1037.3,1397.53C1034.57,1399.06 1030.74,1399.5 1025.8,1398.83L1007.2,1395.63C1009.07,1382.56 1012.7,1371 1018.1,1360.93C1023.5,1350.86 1030.3,1342.43 1038.5,1335.63C1046.7,1328.83 1056.07,1323.66 1066.6,1320.13C1077.13,1316.6 1088.54,1314.83 1100.8,1314.83C1112.93,1314.83 1124.27,1316.63 1134.8,1320.23C1145.34,1323.83 1154.47,1329.06 1162.2,1335.93C1169.93,1342.8 1176,1351.16 1180.4,1361.03C1184.8,1370.9 1187,1382.1 1187,1394.63C1187,1405.3 1185.4,1415.2 1182.2,1424.33C1179,1433.46 1174.67,1442.16 1169.2,1450.43C1163.74,1458.7 1157.43,1466.76 1150.3,1474.63C1143.17,1482.5 1135.6,1490.43 1127.6,1498.43L1052,1575.63C1057.34,1574.16 1062.74,1573 1068.2,1572.13C1073.67,1571.26 1078.93,1570.83 1084,1570.83L1180,1570.83Z" style="fill:rgb(102,102,102);fill-rule:nonzero;"/>
            </g>
        </g>
    </g>
</svg>
